<svg id="Layer_1" data-name="Layer 1" xmlns="http://www.w3.org/2000/svg" viewBox="0 0 1448.72 448.13"><defs><style>.cls-1{fill:#0b0242;}.cls-2{fill:#1cc48f;}</style></defs><path class="cls-1" d="M291.05,1177V858.15h58.2v267.48H485.78V1177Z" transform="translate(-291.05 -823.01)"/><path class="cls-1" d="M601.76,1182.12q-27,0-46.87-12a78.15,78.15,0,0,1-30.38-33.38Q514,1115.37,514,1086.69V944.17h56.07V1082q0,14.55,5.77,25.46a41.87,41.87,0,0,0,16.69,17.12,48.89,48.89,0,0,0,24.61,6.21,47.74,47.74,0,0,0,24.4-6.21,43.38,43.38,0,0,0,16.69-17.33q6-11.13,6-26.53V944.17H720.3V1177H667.24V1131.2l4.7,8.13q-8.13,21.4-26.74,32.1T601.76,1182.12Z" transform="translate(-291.05 -823.01)"/><path class="cls-1" d="M772.51,1177V944.17h52.64V990l-4.28-8.13q8.13-21,26.75-31.88T891.06,939q25.68,0,45.58,11.12a79.21,79.21,0,0,1,31,31q11.12,19.9,11.13,46V1177H922.73V1040.46q0-15.4-6-26.53a43.89,43.89,0,0,0-16.48-17.33q-10.49-6.2-24.61-6.21a47.77,47.77,0,0,0-24.39,6.21,43.31,43.31,0,0,0-16.69,17.33q-6,11.13-6,26.53V1177Z" transform="translate(-291.05 -823.01)"/><path class="cls-1" d="M1139.28,1271.14a133.51,133.51,0,0,1-48.36-8.56,115.07,115.07,0,0,1-38.3-23.75,90,90,0,0,1-23.33-35.73l52.22-19.69q5.13,16.26,20.32,26.32t37.45,10.06q17.12,0,30.18-6.42a47.62,47.62,0,0,0,20.32-18.62q7.28-12.2,7.28-29.32v-53.06l10.7,12.83q-12,21-32.1,31.67t-45.79,10.7q-32.53,0-58.21-15a106.92,106.92,0,0,1-40.23-41.08q-14.55-26.1-14.55-58.63,0-33,14.55-58.64a107.31,107.31,0,0,1,39.8-40.44Q1096.49,939,1128.58,939q26.1,0,46,10.91t33.17,31.46l-7.71,14.12V944.17h53.07v221.26q0,30.39-14.76,54.36a104.52,104.52,0,0,1-40.23,37.66Q1172.66,1271.15,1139.28,1271.14Zm-2.57-155.35q18,0,31.46-7.92a56.26,56.26,0,0,0,21.19-22q7.7-14.11,7.7-32.53a65.7,65.7,0,0,0-7.92-32.31,59.09,59.09,0,0,0-21.4-22.47q-13.48-8.12-31-8.13a62.43,62.43,0,0,0-31.67,8.13,57.7,57.7,0,0,0-22,22.47,65.69,65.69,0,0,0-7.91,32.31q0,18,7.91,32.1a58.41,58.41,0,0,0,21.83,22.26Q1118.73,1115.79,1136.71,1115.79Z" transform="translate(-291.05 -823.01)"/><path class="cls-1" d="M1419.17,1182.12q-34.25,0-62.27-15.83a119.75,119.75,0,0,1-44.51-43.23q-16.47-27.37-16.47-62.48t16.47-62.48a120.37,120.37,0,0,1,44.3-43.23Q1384.5,939,1419.17,939q34.24,0,62.06,15.83a121,121,0,0,1,44.3,43q16.47,27.18,16.47,62.7,0,35.1-16.69,62.48a121.86,121.86,0,0,1-44.51,43.23Q1453,1182.13,1419.17,1182.12Zm0-51.35q18.84,0,33.17-9a63.33,63.33,0,0,0,22.69-25q8.34-16,8.34-36.16,0-20.55-8.34-36.16a65.74,65.74,0,0,0-22.69-24.83q-14.34-9.2-33.17-9.2-19.26,0-33.81,9.2a65.06,65.06,0,0,0-22.89,24.83q-8.35,15.61-8.35,36.16,0,20.12,8.35,36.16a62.7,62.7,0,0,0,22.89,25Q1399.91,1130.76,1419.17,1130.77Z" transform="translate(-291.05 -823.01)"/><path class="cls-2" d="M1544.43,892.12s-3.77-8.34-1-13.88.87-5,13.76-9.23,160.33-45.92,160.33-45.92,10.25-1.26,17.48,6.53,5.18,11.46.6,25.77-53.29,149.45-53.29,149.45-6.68,16.85-16.67,12.52-10.46-4.68-15.78-10.59-34-36.62-34-36.62-4.59-10.33,2.11-17.73,47.2-58.55,47.2-58.55l-61.45,41.42s-10.7,9.93-21.28-1.15S1544.43,892.12,1544.43,892.12Z" transform="translate(-291.05 -823.01)"/></svg>